<svg width="245" height="55" viewBox="0 0 245 55" fill="none" xmlns="http://www.w3.org/2000/svg">
<rect width="245" height="55" rx="18" fill="#9DD458"/>
<path d="M65.9368 32H70.647C73.3118 32 74.6186 30.642 74.6186 28.8295C74.6186 27.0682 73.3686 26.0341 72.13 25.9716V25.858C73.2663 25.5909 74.1641 24.7955 74.1641 23.3807C74.1641 21.6477 72.9141 20.3636 70.3913 20.3636H65.9368V32ZM68.0447 30.2386V26.8295H70.3686C71.6697 26.8295 72.4766 27.625 72.4766 28.6648C72.4766 29.5909 71.8402 30.2386 70.3118 30.2386H68.0447ZM68.0447 25.3125V22.1023H70.1754C71.4141 22.1023 72.0561 22.7557 72.0561 23.6534C72.0561 24.6761 71.2266 25.3125 70.13 25.3125H68.0447ZM80.2251 32.1705C82.2592 32.1705 83.657 31.1761 84.0206 29.6591L82.1001 29.4432C81.8217 30.1818 81.1399 30.5682 80.2536 30.5682C78.924 30.5682 78.0433 29.6932 78.0263 28.1989H84.1058V27.5682C84.1058 24.5057 82.2649 23.1591 80.1172 23.1591C77.6172 23.1591 75.9865 24.9943 75.9865 27.6875C75.9865 30.4261 77.5945 32.1705 80.2251 32.1705ZM78.032 26.8125C78.0945 25.6989 78.9183 24.7614 80.1456 24.7614C81.3274 24.7614 82.1229 25.625 82.1342 26.8125H78.032ZM85.8459 35.2727H87.9027V30.625H87.9879C88.3118 31.2614 88.9879 32.1534 90.4879 32.1534C92.5447 32.1534 94.0845 30.5227 94.0845 27.6477C94.0845 24.7386 92.4993 23.1591 90.4822 23.1591C88.9425 23.1591 88.3004 24.0852 87.9879 24.7159H87.8686V23.2727H85.8459V35.2727ZM87.8629 27.6364C87.8629 25.9432 88.5902 24.8466 89.9141 24.8466C91.2834 24.8466 91.9879 26.0114 91.9879 27.6364C91.9879 29.2727 91.272 30.4659 89.9141 30.4659C88.6016 30.4659 87.8629 29.3295 87.8629 27.6364ZM97.8288 23.2727H95.8459V32H97.8288V28.4716H101.21V32H103.187V23.2727H101.21V26.7841H97.8288V23.2727ZM106.234 35.2727C107.836 35.2727 108.762 34.4489 109.256 33.0568L112.762 23.2841L110.563 23.2727L108.546 29.8636H108.455L106.444 23.2727H104.262L107.427 32.1818L107.251 32.6534C106.87 33.6477 106.268 33.7159 105.37 33.4545L104.893 35.0568C105.171 35.1705 105.671 35.2727 106.234 35.2727ZM113.712 24.9602H116.536V32H118.525V24.9602H121.349V23.2727H113.712V24.9602ZM124.969 26.1136V23.2727H122.987V32H126.952C129.174 32 130.452 30.7727 130.458 29.0568C130.452 27.2955 129.174 26.1136 126.952 26.1136H124.969ZM124.969 27.8011H126.952C127.844 27.8011 128.487 28.3295 128.487 29.0852C128.487 29.8068 127.844 30.3125 126.952 30.3125H124.969V27.8011ZM136.028 32.1705C138.221 32.1705 139.619 30.8693 139.766 29.017H137.8C137.624 29.9545 136.948 30.4943 136.045 30.4943C134.761 30.4943 133.931 29.4205 133.931 27.6364C133.931 25.875 134.778 24.8182 136.045 24.8182C137.033 24.8182 137.641 25.4545 137.8 26.2955H139.766C139.624 24.4034 138.147 23.1591 136.016 23.1591C133.46 23.1591 131.846 25.0057 131.846 27.6705C131.846 30.3125 133.42 32.1705 136.028 32.1705ZM146.614 32H148.54V23.2727H144.751C142.614 23.2727 141.29 24.3693 141.296 26.0455C141.29 27.1477 141.893 27.983 142.933 28.4091L140.978 32H143.001L144.79 28.7159H146.614V32ZM146.614 27.2159H144.683C143.779 27.2159 143.279 26.7443 143.285 26.0909C143.279 25.4375 143.808 24.9432 144.751 24.9432H146.614V27.2159ZM156.563 23.2727H154.58V32H156.563V28.4716H159.944V32H161.921V23.2727H159.944V26.7841H156.563V23.2727ZM166.513 32.1761C167.883 32.1761 168.701 31.5341 169.076 30.8011H169.144V32H171.121V26.1591C171.121 23.8523 169.241 23.1591 167.576 23.1591C165.741 23.1591 164.332 23.9773 163.877 25.5682L165.798 25.8409C166.002 25.2443 166.582 24.733 167.587 24.733C168.542 24.733 169.065 25.2216 169.065 26.0795V26.1136C169.065 26.7045 168.445 26.733 166.906 26.8977C165.212 27.0795 163.593 27.5852 163.593 29.5511C163.593 31.267 164.849 32.1761 166.513 32.1761ZM167.048 30.6648C166.19 30.6648 165.576 30.2727 165.576 29.517C165.576 28.7273 166.263 28.3977 167.184 28.267C167.724 28.1932 168.803 28.0568 169.07 27.8409V28.8693C169.07 29.8409 168.286 30.6648 167.048 30.6648ZM172.707 29.608C172.758 31.2273 174.241 32.1705 176.258 32.1705C178.326 32.1705 179.82 31.1875 179.82 29.5795C179.82 28.4034 179.019 27.5966 177.985 27.5341V27.4432C178.985 27.1761 179.621 26.5511 179.621 25.608C179.621 24.1364 178.349 23.1591 176.303 23.1591C174.394 23.1591 172.957 24.1477 172.928 25.6705H174.957C174.979 25.0852 175.582 24.6761 176.4 24.6761C177.218 24.6761 177.712 25.1136 177.712 25.7614C177.712 26.358 177.258 26.8011 176.406 26.8011H175.07V28.2614H176.406C177.263 28.2614 177.826 28.7443 177.826 29.4489C177.826 30.2443 177.127 30.6307 176.246 30.6307C175.377 30.6307 174.786 30.2557 174.746 29.608H172.707ZM183.951 32.1761C185.32 32.1761 186.138 31.5341 186.513 30.8011H186.582V32H188.559V26.1591C188.559 23.8523 186.678 23.1591 185.013 23.1591C183.178 23.1591 181.769 23.9773 181.315 25.5682L183.235 25.8409C183.44 25.2443 184.019 24.733 185.025 24.733C185.979 24.733 186.502 25.2216 186.502 26.0795V26.1136C186.502 26.7045 185.883 26.733 184.343 26.8977C182.65 27.0795 181.031 27.5852 181.031 29.5511C181.031 31.267 182.286 32.1761 183.951 32.1761ZM184.485 30.6648C183.627 30.6648 183.013 30.2727 183.013 29.517C183.013 28.7273 183.701 28.3977 184.621 28.267C185.161 28.1932 186.241 28.0568 186.508 27.8409V28.8693C186.508 29.8409 185.724 30.6648 184.485 30.6648ZM189.854 34.5341H191.877V32H197.587V34.5341H199.576V30.3068H198.224V23.2727H191.917L191.667 26.3295C191.502 28.2841 191.286 29.733 190.548 30.3068H189.854V34.5341ZM192.661 30.3068C193.212 29.4943 193.417 28.1761 193.565 26.3295L193.701 24.9318H196.258V30.3068H192.661Z" fill="white"/>
<path d="M44.7144 27L31.0001 27" stroke="white" stroke-width="2" stroke-linecap="round" stroke-linejoin="round"/>
<path d="M37 33L31 27L37 21" stroke="white" stroke-width="2" stroke-linecap="round" stroke-linejoin="round"/>
</svg>
